<svg width="241" height="59" viewBox="0 0 241 59" fill="none" xmlns="http://www.w3.org/2000/svg">
<path d="M0.895996 0.601318H10.0754V15.3995L10.434 15.763C11.0798 14.8646 11.8469 14.0612 12.7132 13.3762C13.8206 12.4901 15.0548 11.7777 16.3739 11.2632C17.9224 10.6586 19.5724 10.3607 21.2331 10.386C22.9696 10.397 24.6887 10.7347 26.3018 11.3819C28.1602 12.1199 29.8456 13.2397 31.2503 14.6699C32.6551 16.1001 33.7484 17.8093 34.4607 19.6885C35.3191 21.8241 35.7491 24.3603 35.7507 27.2972C35.7507 30.2777 35.2806 32.8454 34.3404 35.0004C33.5037 37.0095 32.2451 38.8124 30.6508 40.2853C29.2303 41.5926 27.5832 42.6259 25.7916 43.3336C24.0731 44 22.4221 44.3925 20.8721 44.3925C19.2388 44.3808 17.6219 44.0628 16.1043 43.4548C14.7111 42.9295 13.3991 42.2075 12.2078 41.3103C11.1055 40.4638 10.3554 39.5979 9.95746 38.7127L9.59645 39.0156L9.45204 44.3925H0.895996V0.601318ZM10.7348 30.7114C11.6311 32.6722 13.2415 34.2112 15.2331 35.0101C16.1684 35.3874 17.1666 35.5815 18.1741 35.582C19.2497 35.5907 20.3175 35.3968 21.3222 35.0101C22.3013 34.6298 23.1997 34.0657 23.9696 33.3478C24.7537 32.6157 25.3683 31.7189 25.7699 30.7211C26.204 29.6156 26.4182 28.435 26.4005 27.2463C26.4169 26.0433 26.1815 24.8503 25.7097 23.7449C25.2707 22.7275 24.6275 21.8126 23.8204 21.0576C23.0509 20.3306 22.153 19.7553 21.173 19.3614C20.2196 18.9755 19.2017 18.7764 18.1741 18.775C17.1152 18.7748 16.0676 18.9933 15.0959 19.4171C14.1159 19.8342 13.2257 20.4391 12.4749 21.1981C11.7101 21.9701 11.099 22.8822 10.6747 23.8854C10.2282 24.9449 10.0037 26.0858 10.0152 27.2366C9.99522 28.4344 10.2411 29.6215 10.7348 30.7114Z" fill="#0C0C0D"/>
<path d="M49.0987 43.2731C47.0443 42.5197 45.159 41.3629 43.5523 39.87C41.9455 38.3771 40.6493 36.5778 39.7388 34.5764C38.76 32.4634 38.2707 30.0572 38.2707 27.3578C38.2301 24.8928 38.7314 22.4493 39.7388 20.2022C40.6682 18.1572 42.0061 16.3268 43.669 14.8253C45.2774 13.376 47.1388 12.2398 49.1589 11.474C51.1059 10.7415 53.1694 10.3728 55.248 10.3861C57.3663 10.3657 59.4705 10.7344 61.4574 11.474C63.4701 12.2354 65.3221 13.3724 66.916 14.8253C68.5606 16.3296 69.8782 18.1603 70.786 20.2022C71.7761 22.4541 72.2688 24.8955 72.2301 27.3578C72.2301 30.0572 71.7487 32.4634 70.786 34.5764C69.8782 36.6176 68.5605 38.4475 66.916 39.9509C65.3267 41.403 63.473 42.5312 61.4574 43.2731C57.4712 44.7658 53.0849 44.7658 49.0987 43.2731ZM47.7485 30.772C48.1673 31.7718 48.7793 32.6778 49.5487 33.4375C51.0714 34.9363 53.1185 35.7719 55.248 35.7637C56.6924 35.7829 58.1175 35.4292 59.3876 34.7363C60.6275 34.0526 61.6472 33.026 62.3263 31.7776C63.0618 30.4274 63.4343 28.9072 63.4069 27.3675C63.4397 25.8035 63.0567 24.2592 62.2974 22.8944C61.5953 21.6447 60.5686 20.6111 59.3274 19.9042C58.0829 19.1985 56.6762 18.8342 55.248 18.8477C54.1762 18.8441 53.1138 19.049 52.1192 19.4511C51.1434 19.8383 50.2564 20.4221 49.5126 21.1667C48.757 21.9424 48.1579 22.8583 47.7485 23.8636C47.2963 24.974 47.072 26.1651 47.089 27.3651C47.0744 28.5343 47.2989 29.694 47.7485 30.772Z" fill="#0C0C0D"/>
<path d="M75.8232 0.601318H85.0026V15.3995L85.3636 15.763C86.0081 14.8634 86.7754 14.0599 87.6429 13.3762C88.7491 12.4896 89.9826 11.7771 91.3011 11.2632C92.8498 10.6588 94.4997 10.361 96.1604 10.386C97.8976 10.3974 99.6174 10.7352 101.231 11.3819C103.089 12.1205 104.774 13.2405 106.178 14.6706C107.583 16.1008 108.676 17.8097 109.388 19.6885C110.25 21.8241 110.68 24.3603 110.678 27.2972C110.678 30.2777 110.209 32.8454 109.27 35.0004C108.434 37.0076 107.179 38.8101 105.59 40.2853C104.169 41.5916 102.522 42.6248 100.731 43.3336C99.01 44 97.3614 44.3925 95.8114 44.3925C94.1773 44.3811 92.5596 44.0631 91.0412 43.4548C89.6474 42.9292 88.3346 42.2072 87.1422 41.3103C86.0432 40.4638 85.293 39.5979 84.8919 38.7127L84.5333 39.0156L84.413 44.3925H75.8232V0.601318ZM85.6621 30.7114C86.5583 32.6731 88.1698 34.2124 90.1627 35.0101C91.0971 35.3876 92.0946 35.5817 93.1014 35.582C94.1777 35.5905 95.2462 35.3966 96.2518 35.0101C97.231 34.63 98.1295 34.0659 98.8993 33.3478C99.6841 32.6164 100.299 31.7194 100.7 30.7211C101.135 29.6159 101.349 28.4351 101.33 27.2463C101.347 26.0433 101.111 24.8503 100.639 23.7449C100.2 22.7275 99.5571 21.8126 98.7501 21.0576C97.9806 20.3306 97.0826 19.7553 96.1026 19.3614C95.1485 18.9749 94.1298 18.7759 93.1014 18.775C92.0389 18.7708 90.987 18.9869 90.0111 19.4098C89.0348 19.8305 88.1488 20.4378 87.4022 21.1981C86.6416 21.9711 86.0347 22.8832 85.614 23.8854C85.1675 24.9449 84.943 26.0858 84.9545 27.2366C84.9319 28.4333 85.1735 29.6202 85.6621 30.7114Z" fill="#0C0C0D"/>
<path d="M124.026 43.3336C121.972 42.5805 120.087 41.4239 118.48 39.9309C116.874 38.4379 115.578 36.6384 114.668 34.6369C113.686 32.5239 113.196 30.1177 113.198 27.4183C113.157 24.9531 113.659 22.5093 114.668 20.2628C115.596 18.2231 116.929 16.397 118.587 14.8979C120.195 13.4492 122.057 12.3129 124.076 11.5467C126.02 10.7953 128.084 10.4061 130.166 10.3981C132.294 10.3919 134.406 10.777 136.397 11.5346C138.406 12.3009 140.254 13.442 141.843 14.8979C143.488 16.4023 144.805 18.233 145.713 20.2749C146.703 22.5267 147.196 24.9681 147.157 27.4305C147.157 30.1298 146.676 32.536 145.713 34.649C144.805 36.6902 143.488 38.5201 141.843 40.0236C140.257 41.47 138.407 42.594 136.397 43.3336C132.411 44.8263 128.024 44.8263 124.038 43.3336H124.026ZM122.678 30.772C123.301 32.254 124.346 33.5176 125.68 34.404C127.014 35.2904 128.579 35.7601 130.178 35.754C131.622 35.7735 133.047 35.4198 134.317 34.7266C135.557 34.0428 136.577 33.0162 137.256 31.7679C137.993 30.4181 138.365 28.8976 138.337 27.3578C138.367 25.7968 137.983 24.256 137.225 22.8943C136.523 21.6429 135.497 20.6075 134.255 19.8993C133.007 19.1912 131.596 18.8268 130.163 18.8428C129.091 18.8392 128.029 19.0441 127.034 19.4462C126.057 19.8335 125.169 20.4191 124.425 21.1666C123.675 21.9433 123.082 22.8592 122.678 23.8636C122.226 24.974 122.002 26.165 122.019 27.365C122.004 28.5342 122.229 29.6939 122.678 30.772Z" fill="#0C0C0D"/>
<path d="M158.125 42.1172C155.545 40.7037 153.385 38.6236 151.867 36.0908C150.329 33.5111 149.536 30.5506 149.576 27.542C149.576 24.2222 150.329 21.2708 151.836 18.6878C153.32 16.1256 155.471 14.0207 158.058 12.6008C160.705 11.1243 163.698 10.386 167.037 10.386C168.746 10.386 170.14 10.5476 171.22 10.8707C172.231 11.1781 173.221 11.5521 174.183 11.9902V15.7364C173.192 15.2161 172.173 14.7541 171.129 14.3527C170.11 13.9634 168.766 13.7688 167.097 13.7688C164.37 13.7688 161.947 14.3729 159.829 15.5813C157.765 16.7426 156.04 18.4287 154.825 20.4712C153.589 22.5945 152.958 25.0203 153.003 27.4814C152.97 29.8994 153.593 32.2806 154.806 34.368C156.004 36.4169 157.736 38.097 159.815 39.2264C161.952 40.4154 164.384 41.0098 167.112 41.0098C168.782 41.0098 170.126 40.7942 171.143 40.3629C172.16 39.9315 173.174 39.4703 174.183 38.9792V42.5461C173.204 43.0479 172.181 43.4599 171.129 43.7771C169.844 44.1828 168.506 44.3903 167.16 44.3926C164.004 44.4282 160.893 43.6445 158.125 42.1172Z" fill="#0C0C0D"/>
<path d="M177.853 0.601318H181.309V17.4883C181.983 15.9963 182.956 14.6605 184.166 13.5647C185.377 12.4689 186.799 11.6367 188.344 11.1202C189.716 10.651 191.153 10.4056 192.602 10.3933C194.63 10.403 196.624 10.9218 198.402 11.9029C200.254 12.8964 201.778 14.5223 202.975 16.7807C204.172 19.0391 204.763 22.0503 204.749 25.8142V44.3925H201.302V26.311C201.302 23.2869 200.85 20.8637 199.945 19.0415C199.04 17.2193 197.857 15.9043 196.397 15.0966C194.933 14.287 193.286 13.8698 191.615 13.885C190.424 13.8986 189.244 14.1192 188.128 14.5369C186.876 14.9936 185.73 15.7017 184.758 16.6184C183.649 17.6971 182.797 19.0141 182.265 20.4712C181.623 22.0866 181.302 24.0332 181.302 26.311V44.3925H177.853V0.601318Z" fill="#0C0C0D"/>
<path d="M209.122 10.386H212.422V44.3926H209.122V10.386Z" fill="#0C0C0D"/>
<path d="M224.833 42.1172C222.253 40.7037 220.093 38.6236 218.576 36.0908C217.037 33.5111 216.244 30.5506 216.284 27.542C216.284 24.2222 217.038 21.2708 218.544 18.6878C220.031 16.1252 222.185 14.0203 224.773 12.6008C227.421 11.1243 230.414 10.386 233.753 10.386C235.462 10.386 236.856 10.5476 237.936 10.8707C238.946 11.1782 239.935 11.5521 240.896 11.9902V15.7364C239.905 15.2161 238.886 14.7541 237.842 14.3527C236.823 13.9634 235.479 13.7688 233.81 13.7688C231.083 13.7688 228.66 14.3729 226.542 15.5813C224.477 16.7425 222.75 18.4285 221.534 20.4712C220.293 22.5935 219.66 25.0194 219.702 27.4814C219.67 29.8992 220.293 32.2801 221.505 34.368C222.705 36.4155 224.436 38.0951 226.513 39.2264C228.65 40.4154 231.083 41.0098 233.81 41.0098C235.481 41.0098 236.825 40.7942 237.842 40.3629C238.859 39.9315 239.877 39.4703 240.896 38.9792V42.5461C239.917 43.0483 238.895 43.4603 237.842 43.7771C236.557 44.1831 235.218 44.3906 233.871 44.3926C230.714 44.4286 227.601 43.6449 224.833 42.1172Z" fill="#0C0C0D"/>
<path d="M212.361 4.07371C211.921 4.43089 211.366 4.61362 210.802 4.58741C210.224 4.6088 209.659 4.41562 209.213 4.04463C209.006 3.86628 208.841 3.64271 208.732 3.39083C208.622 3.13895 208.571 2.86535 208.583 2.59074C208.571 2.3161 208.622 2.04244 208.731 1.79053C208.841 1.53862 209.005 1.31507 209.213 1.13685C209.66 0.768468 210.225 0.57791 210.802 0.601328C211.086 0.589064 211.371 0.633477 211.638 0.732023C211.906 0.83057 212.152 0.981313 212.361 1.17562C212.56 1.36503 212.716 1.59481 212.819 1.84968C212.922 2.10454 212.971 2.37864 212.961 2.65374C212.974 2.92069 212.927 3.18727 212.824 3.43329C212.72 3.67931 212.562 3.89831 212.361 4.07371Z" fill="#0C0C0D"/>
<path d="M80.8967 51.5384H82.4347C82.9915 51.5253 83.5451 51.6267 84.0616 51.8365C84.4908 52.009 84.8583 52.308 85.1158 52.6943C85.3681 53.1012 85.4953 53.5742 85.4816 54.0537C85.4964 54.5038 85.3701 54.9472 85.1206 55.321C84.8609 55.6788 84.499 55.9484 84.0833 56.094C83.5604 56.28 83.0083 56.3686 82.4539 56.3557H81.4455V58.6795H80.8967V51.5384ZM81.4455 55.8492H82.4443C83.0831 55.8822 83.7179 55.73 84.2734 55.4106C84.4953 55.2619 84.6742 55.0566 84.7917 54.8157C84.9092 54.5748 84.9612 54.3069 84.9425 54.0391C84.9506 53.6668 84.8438 53.301 84.6368 52.9923C84.4196 52.6863 84.1173 52.4519 83.768 52.3187C83.349 52.1565 82.9026 52.0783 82.4539 52.0885H81.4455V55.8492Z" fill="#0C0C0D"/>
<path d="M105.388 58.6795H104.808L104.199 57.09H100.83L100.221 58.6795H99.631L102.469 51.5385H102.567L105.388 58.6795ZM103.99 56.5375L102.531 52.6992L101.051 56.5423L103.99 56.5375Z" fill="#0C0C0D"/>
<path d="M120.897 51.5385H122.057C122.571 51.5277 123.08 51.6251 123.554 51.8245C123.965 51.9951 124.314 52.289 124.553 52.6661C124.793 53.0433 124.911 53.4854 124.892 53.9326C124.899 54.2495 124.83 54.5634 124.693 54.8486C124.562 55.1141 124.378 55.3499 124.153 55.5416C123.924 55.7373 123.662 55.8922 123.381 55.9996C123.087 56.1102 122.779 56.1795 122.466 56.2055C122.443 56.2101 122.42 56.2101 122.397 56.2055H122.327L124.892 58.6287V58.6893H124.122L121.564 56.2249C121.542 56.2294 121.52 56.2294 121.499 56.2249C121.481 56.2203 121.463 56.2203 121.446 56.2249V58.6796H120.897V51.5385ZM121.436 55.7015H122.127C122.402 55.7021 122.675 55.6655 122.94 55.5925C123.199 55.5234 123.443 55.4094 123.662 55.2556C123.867 55.1093 124.037 54.9199 124.161 54.7007C124.289 54.4656 124.352 54.2006 124.346 53.9326C124.359 53.5727 124.259 53.2177 124.062 52.9173C123.863 52.6348 123.585 52.4181 123.263 52.2946C122.88 52.144 122.471 52.0716 122.06 52.0813H121.439L121.436 55.7015Z" fill="#0C0C0D"/>
<path d="M140.534 51.5385H141.114V58.6795H140.534V51.5385Z" fill="#0C0C0D"/>
<path d="M157.973 58.5147C157.72 58.4181 157.483 58.2851 157.268 58.1198C157.076 57.972 156.913 57.7896 156.787 57.5818V56.7991C156.93 57.064 157.117 57.3025 157.34 57.5043C157.546 57.6926 157.781 57.8449 158.036 57.955C158.275 58.0594 158.533 58.1139 158.794 58.1149C159.058 58.1166 159.318 58.0586 159.557 57.9453C159.792 57.831 159.991 57.6532 160.132 57.4316C160.292 57.1733 160.37 56.8728 160.358 56.5689C160.374 56.2554 160.297 55.9442 160.137 55.6748C159.983 55.4465 159.771 55.2641 159.523 55.1466C159.224 55.005 158.912 54.8923 158.592 54.8097C158.338 54.7349 158.095 54.6256 157.87 54.485C157.656 54.3535 157.475 54.1735 157.343 53.9592C157.205 53.7257 157.137 53.4575 157.145 53.1862C157.138 52.8812 157.214 52.58 157.367 52.3163C157.511 52.0739 157.718 51.8761 157.966 51.7444C158.225 51.6081 158.513 51.5359 158.806 51.5336C159.027 51.5221 159.249 51.5542 159.458 51.6281C159.629 51.6954 159.79 51.7832 159.94 51.8898C160.058 51.9747 160.17 52.0687 160.274 52.1709V52.847C160.151 52.7092 160.016 52.582 159.872 52.4665C159.726 52.3469 159.564 52.2475 159.391 52.1709C159.204 52.0913 159.004 52.0517 158.801 52.0546C158.602 52.051 158.406 52.0994 158.231 52.1951C158.063 52.2849 157.923 52.42 157.826 52.5853C157.726 52.7588 157.675 52.9564 157.677 53.1571C157.67 53.3447 157.721 53.5299 157.822 53.6878C157.924 53.836 158.059 53.9586 158.216 54.0464C158.395 54.1465 158.585 54.2239 158.782 54.2766C159.065 54.3568 159.342 54.4556 159.612 54.5723C159.858 54.6767 160.086 54.818 160.289 54.9915C160.484 55.1643 160.64 55.3775 160.746 55.6166C160.863 55.8995 160.92 56.2043 160.912 56.5108C160.93 56.9354 160.825 57.3561 160.611 57.7224C160.423 58.0291 160.151 58.2754 159.829 58.4323C159.506 58.5915 159.151 58.6744 158.792 58.6747C158.511 58.6734 158.234 58.6191 157.973 58.5147Z" fill="#0C0C0D"/>
</svg>
