<svg width="32" height="18" viewBox="0 0 32 18" fill="none" xmlns="http://www.w3.org/2000/svg">
<rect y="0.262207" width="32" height="17" rx="8.5" fill="#FAFAFA"/>
<path d="M18.2996 11.1356H13.7531V3.47754H18.2996V11.1356Z" fill="#7375CF"/>
<path d="M14.0472 7.30654C14.0472 5.75443 14.8204 4.36778 16.0306 3.47749C15.1481 2.82356 14.0304 2.4375 12.8202 2.4375C9.95449 2.4375 7.62659 4.6199 7.62659 7.30654C7.62659 9.99317 9.95449 12.1756 12.8202 12.1756C14.0304 12.1756 15.1481 11.7895 16.0306 11.1356C14.8204 10.2453 14.0472 8.85864 14.0472 7.30654Z" fill="#EB001B"/>
<path d="M24.4345 7.30654C24.4345 9.99317 22.1066 12.1756 19.2409 12.1756C18.0307 12.1756 16.913 11.7895 16.0306 11.1356C17.2407 10.2453 18.0139 8.85864 18.0139 7.30654C18.0139 5.75443 17.2407 4.36778 16.0306 3.47749C16.913 2.82356 18.0307 2.4375 19.2409 2.4375C22.1066 2.4375 24.4345 4.6199 24.4345 7.30654Z" fill="#00A2E5"/>
<path d="M19.8291 13.3022C19.888 13.3022 19.9804 13.3101 20.0392 13.3337L19.9468 13.6016C19.8796 13.5779 19.8207 13.5701 19.7619 13.5701C19.5686 13.5701 19.4678 13.6882 19.4678 13.901V14.6258H19.1652V13.3337H19.4594V13.4913C19.5434 13.3731 19.6611 13.3022 19.8291 13.3022ZM18.7198 13.5858H18.2324V14.1688C18.2324 14.2949 18.2828 14.3816 18.4341 14.3816C18.5097 14.3816 18.6106 14.3579 18.703 14.3107L18.7871 14.5549C18.6946 14.6179 18.5433 14.6573 18.4089 14.6573C18.0559 14.6573 17.9298 14.4761 17.9298 14.1767V13.5858H17.6525V13.3258H17.9298V12.9319H18.2324V13.3258H18.7198V13.5858ZM14.8792 13.8616C14.9128 13.6725 15.0305 13.5464 15.249 13.5464C15.4423 13.5464 15.5683 13.6567 15.6019 13.8616H14.8792ZM15.9129 13.9798C15.9129 13.5779 15.644 13.3022 15.2574 13.3022C14.854 13.3022 14.5683 13.5779 14.5683 13.9798C14.5683 14.3894 14.8624 14.6573 15.2742 14.6573C15.4843 14.6573 15.6692 14.61 15.8373 14.4761L15.686 14.2713C15.5683 14.3579 15.4255 14.4052 15.2826 14.4052C15.0893 14.4052 14.9128 14.3185 14.8708 14.0901H15.8961C15.9045 14.0507 15.9129 14.0191 15.9129 13.9798ZM17.2323 13.6646C17.1483 13.6173 16.9802 13.5543 16.8037 13.5543C16.6356 13.5543 16.5432 13.6095 16.5432 13.704C16.5432 13.7907 16.644 13.8143 16.7785 13.8301L16.9214 13.8458C17.2239 13.8852 17.4004 14.0034 17.4004 14.2319C17.4004 14.4761 17.1735 14.6573 16.7701 14.6573C16.5432 14.6573 16.3331 14.6022 16.1734 14.4919L16.3163 14.2713C16.4171 14.3422 16.5684 14.4052 16.7785 14.4052C16.9802 14.4052 17.0894 14.3501 17.0894 14.2476C17.0894 14.1767 17.0138 14.1373 16.8457 14.1137L16.7029 14.0979C16.3919 14.0585 16.2238 13.9246 16.2238 13.7198C16.2238 13.4598 16.4507 13.3022 16.7953 13.3022C17.0138 13.3022 17.2155 13.3495 17.3584 13.4361L17.2323 13.6646ZM20.9301 13.5622C20.8712 13.5622 20.8124 13.5701 20.762 13.5937C20.7116 13.6173 20.6611 13.641 20.6275 13.6804C20.5939 13.7198 20.5603 13.7591 20.5351 13.8143C20.5099 13.8616 20.5015 13.9246 20.5015 13.9798C20.5015 14.0428 20.5099 14.0979 20.5351 14.1452C20.5603 14.1925 20.5855 14.2398 20.6275 14.2791C20.6695 14.3185 20.7116 14.3422 20.762 14.3658C20.8124 14.3894 20.8712 14.3973 20.9301 14.3973C20.9889 14.3973 21.0477 14.3894 21.0981 14.3658C21.1486 14.3422 21.199 14.3185 21.2326 14.2791C21.2746 14.2398 21.2998 14.2004 21.325 14.1452C21.3503 14.0979 21.3587 14.0349 21.3587 13.9798C21.3587 13.9167 21.3503 13.8616 21.325 13.8143C21.2998 13.767 21.2746 13.7198 21.2326 13.6804C21.1906 13.641 21.1486 13.6173 21.0981 13.5937C21.0477 13.5779 20.9889 13.5622 20.9301 13.5622ZM20.9301 13.3022C21.0393 13.3022 21.1402 13.3179 21.2242 13.3573C21.3166 13.3889 21.3923 13.4361 21.4595 13.4992C21.5267 13.5622 21.5772 13.6331 21.6192 13.7119C21.6528 13.7985 21.678 13.8852 21.678 13.9798C21.678 14.0743 21.6612 14.1688 21.6192 14.2476C21.5856 14.3343 21.5267 14.4052 21.4595 14.4604C21.3923 14.5234 21.3166 14.5707 21.2242 14.6022C21.1318 14.6337 21.0309 14.6573 20.9301 14.6573C20.8208 14.6573 20.72 14.6416 20.6359 14.6022C20.5435 14.5707 20.4678 14.5234 20.4006 14.4604C20.3334 14.3973 20.283 14.3264 20.2409 14.2476C20.2073 14.161 20.1821 14.0743 20.1821 13.9798C20.1821 13.8852 20.1989 13.7907 20.2409 13.7119C20.2746 13.6252 20.3334 13.5543 20.4006 13.4992C20.4678 13.4361 20.5435 13.3889 20.6359 13.3573C20.72 13.3179 20.8208 13.3022 20.9301 13.3022ZM13.1312 13.9798C13.1312 13.7513 13.2909 13.5622 13.5514 13.5622C13.8035 13.5622 13.9632 13.7434 13.9632 13.9798C13.9632 14.2161 13.7951 14.3894 13.5514 14.3894C13.2909 14.3894 13.1312 14.2082 13.1312 13.9798ZM14.2489 13.9798V13.3337H13.9464V13.4913C13.8539 13.3731 13.7111 13.3022 13.5094 13.3022C13.1228 13.3022 12.8202 13.5858 12.8202 13.9798C12.8202 14.3737 13.1228 14.6573 13.5094 14.6573C13.7026 14.6573 13.8455 14.5864 13.9464 14.4682V14.6258H14.2489V13.9798ZM12.5597 14.6258V13.8143C12.5597 13.507 12.3496 13.3022 12.0135 13.3022C11.837 13.3022 11.6521 13.3495 11.526 13.5307C11.4336 13.3889 11.2823 13.3022 11.0722 13.3022C10.9293 13.3022 10.7781 13.3416 10.6688 13.4913V13.3337H10.3663V14.6258H10.6688V13.9088C10.6688 13.6882 10.8033 13.5622 11.005 13.5622C11.2067 13.5622 11.3075 13.6804 11.3075 13.901V14.6179H11.6101V13.901C11.6101 13.6804 11.7529 13.5543 11.9462 13.5543C12.1479 13.5543 12.2488 13.6725 12.2488 13.8931V14.61H12.5597V14.6258Z" fill="#0C0C0D"/>
</svg>
