<svg width="32" height="18" viewBox="0 0 32 18" fill="none" xmlns="http://www.w3.org/2000/svg">
<rect y="0.262207" width="32" height="17" rx="8.5" fill="#FAFAFA"/>
<path d="M13.8295 13.9557L14.0351 12.7226L13.5772 12.7126H11.3907L12.9102 3.61316C12.9149 3.58569 12.9302 3.56007 12.9526 3.54188C12.975 3.52369 13.0037 3.51367 13.0336 3.51367H16.7203C17.9443 3.51367 18.7889 3.75421 19.2299 4.22899C19.4367 4.45171 19.5683 4.68446 19.632 4.94059C19.6988 5.20935 19.7 5.53044 19.6348 5.92207L19.63 5.95065V6.20159L19.8368 6.31221C20.0109 6.39944 20.1493 6.49929 20.2554 6.61363C20.4322 6.80406 20.5466 7.04608 20.595 7.33303C20.6449 7.62814 20.6284 7.9793 20.5466 8.37686C20.4523 8.83419 20.2998 9.2325 20.0938 9.55842C19.9044 9.85872 19.6631 10.1078 19.3765 10.3008C19.103 10.4842 18.7779 10.6234 18.4104 10.7125C18.0543 10.8001 17.6483 10.8443 17.203 10.8443H16.9161C16.7109 10.8443 16.5116 10.9141 16.3552 11.0392C16.1984 11.1669 16.0946 11.3413 16.0628 11.5321L16.0412 11.6431L15.678 13.8165L15.6615 13.8963C15.6572 13.9216 15.6497 13.9342 15.6387 13.9427C15.6289 13.9505 15.6147 13.9557 15.601 13.9557H13.8295Z" fill="#253B80"/>
<path d="M20.0325 5.97949C20.0215 6.04594 20.0089 6.11387 19.9948 6.18366C19.5086 8.5412 17.8452 9.35563 15.7208 9.35563H14.6392C14.3794 9.35563 14.1605 9.53381 14.12 9.77583L13.5662 13.0929L13.4094 14.0332C13.383 14.1921 13.5127 14.3354 13.6825 14.3354H15.601C15.8281 14.3354 16.0211 14.1795 16.0569 13.9679L16.0758 13.8758L16.437 11.7109L16.4602 11.5922C16.4955 11.3798 16.6889 11.2239 16.9161 11.2239H17.203C19.0617 11.2239 20.5168 10.5112 20.942 8.44877C21.1197 7.58719 21.0277 6.86779 20.5576 6.36184C20.4153 6.20927 20.2389 6.08269 20.0325 5.97949Z" fill="#179BD7"/>
<path d="M19.5239 5.78811C19.4497 5.76769 19.373 5.74913 19.2944 5.73243C19.2154 5.71609 19.1344 5.70162 19.0511 5.68899C18.7595 5.64445 18.4399 5.62329 18.0976 5.62329H15.2079C15.1368 5.62329 15.0692 5.63851 15.0087 5.66598C14.8754 5.72649 14.7764 5.84564 14.7524 5.99153L14.1377 9.66871L14.12 9.77599C14.1605 9.53396 14.3794 9.35578 14.6392 9.35578H15.7209C17.8453 9.35578 19.5086 8.54098 19.9948 6.18381C20.0094 6.11403 20.0215 6.0461 20.0325 5.97965C19.9095 5.91803 19.7763 5.86532 19.6328 5.8204C19.5974 5.80927 19.5609 5.7985 19.5239 5.78811Z" fill="#222D65"/>
<path d="M14.7523 5.99147C14.7763 5.84559 14.8754 5.72643 15.0086 5.66629C15.0695 5.63883 15.1367 5.62361 15.2079 5.62361H18.0975C18.4399 5.62361 18.7594 5.64476 19.0511 5.68931C19.1344 5.70193 19.2154 5.71641 19.2944 5.73274C19.373 5.74944 19.4496 5.76801 19.5239 5.78842C19.5608 5.79882 19.5974 5.80958 19.6332 5.82035C19.7766 5.86526 19.9099 5.91834 20.0329 5.97959C20.1775 5.10837 20.0317 4.51518 19.5329 3.97804C18.9831 3.38671 17.9906 3.13354 16.7207 3.13354H13.034C12.7746 3.13354 12.5533 3.31172 12.5132 3.55412L10.9776 12.7471C10.9473 12.929 11.0959 13.093 11.29 13.093H13.5661L14.1376 9.66865L14.7523 5.99147Z" fill="#253B80"/>
</svg>
