<svg width="31" height="18" viewBox="0 0 31 18" fill="none" xmlns="http://www.w3.org/2000/svg">
<rect y="0.262207" width="31" height="17" rx="8.5" fill="#FAFAFA"/>
<path d="M10.3085 14.6972V13.906C10.3085 13.6033 10.1129 13.4051 9.77708 13.4051C9.60919 13.4051 9.42663 13.4574 9.30112 13.6295C9.20332 13.485 9.06314 13.4051 8.85287 13.4051C8.71269 13.4051 8.57251 13.4451 8.46167 13.5895V13.4313H8.16827V14.6972H8.46167V13.9982C8.46167 13.7739 8.58718 13.6679 8.78278 13.6679C8.97838 13.6679 9.07618 13.7862 9.07618 13.9982V14.6972H9.36958V13.9982C9.36958 13.7739 9.50976 13.6679 9.69069 13.6679C9.88629 13.6679 9.98409 13.7862 9.98409 13.9982V14.6972H10.3085ZM14.6606 13.4313H14.1846V13.0487H13.8912V13.4313H13.6255V13.6817H13.8912V14.2624C13.8912 14.5528 14.0167 14.7233 14.3525 14.7233C14.478 14.7233 14.6182 14.6834 14.716 14.6311L14.6312 14.393C14.5465 14.4453 14.4487 14.4591 14.3786 14.4591C14.2384 14.4591 14.183 14.3792 14.183 14.2486V13.6817H14.6589V13.4313H14.6606ZM17.1512 13.4036C16.9833 13.4036 16.8708 13.4835 16.8007 13.588V13.4297H16.5073V14.6957H16.8007V13.9828C16.8007 13.7723 16.8985 13.6525 17.0811 13.6525C17.1365 13.6525 17.2066 13.6663 17.2637 13.6786L17.3484 13.4144C17.2897 13.4036 17.2066 13.4036 17.1512 13.4036ZM13.3875 13.5357C13.2473 13.4436 13.0517 13.4036 12.8415 13.4036C12.5057 13.4036 12.2824 13.5619 12.2824 13.8123C12.2824 14.0228 12.4503 14.1426 12.7437 14.181L12.8839 14.1948C13.0371 14.2209 13.1218 14.2609 13.1218 14.327C13.1218 14.4191 13.0094 14.4852 12.8138 14.4852C12.6182 14.4852 12.4633 14.4191 12.3655 14.3531L12.2253 14.5635C12.3786 14.6696 12.5888 14.7218 12.7991 14.7218C13.1903 14.7218 13.4152 14.5497 13.4152 14.3131C13.4152 14.0888 13.2327 13.9705 12.9539 13.9306L12.8138 13.9167C12.6883 13.9029 12.5905 13.8768 12.5905 13.7985C12.5905 13.7063 12.6883 13.654 12.8431 13.654C13.011 13.654 13.1789 13.7201 13.2636 13.76L13.3875 13.5357ZM21.1936 13.4036C21.0257 13.4036 20.9132 13.4835 20.8431 13.588V13.4297H20.5497V14.6957H20.8431V13.9828C20.8431 13.7723 20.9409 13.6525 21.1235 13.6525C21.1789 13.6525 21.249 13.6663 21.3061 13.6786L21.3908 13.4174C21.3338 13.4036 21.2506 13.4036 21.1936 13.4036ZM17.4446 14.0642C17.4446 14.4468 17.7249 14.7233 18.1585 14.7233C18.3541 14.7233 18.4943 14.6834 18.6345 14.5789L18.4943 14.3546C18.3818 14.4345 18.271 14.4729 18.1439 14.4729C17.9059 14.4729 17.738 14.3147 17.738 14.0642C17.738 13.8261 17.9059 13.6679 18.1439 13.6556C18.2694 13.6556 18.3818 13.6955 18.4943 13.7739L18.6345 13.5496C18.4943 13.4436 18.3541 13.4051 18.1585 13.4051C17.7249 13.4036 17.4446 13.6817 17.4446 14.0642ZM20.1585 14.0642V13.4313H19.8651V13.5895C19.7673 13.4712 19.6272 13.4051 19.4446 13.4051C19.0664 13.4051 18.773 13.6817 18.773 14.0642C18.773 14.4468 19.0664 14.7233 19.4446 14.7233C19.6402 14.7233 19.7804 14.6573 19.8651 14.539V14.6972H20.1585V14.0642ZM19.0811 14.0642C19.0811 13.8399 19.2343 13.6556 19.487 13.6556C19.725 13.6556 19.8928 13.8276 19.8928 14.0642C19.8928 14.2885 19.725 14.4729 19.487 14.4729C19.236 14.4591 19.0811 14.287 19.0811 14.0642ZM15.5701 13.4036C15.1789 13.4036 14.8985 13.6679 14.8985 14.0627C14.8985 14.4591 15.1789 14.7218 15.5848 14.7218C15.7804 14.7218 15.976 14.6696 16.1308 14.5497L15.9906 14.3515C15.8782 14.4314 15.738 14.4837 15.5994 14.4837C15.4169 14.4837 15.2359 14.4038 15.1936 14.181H16.1862C16.1862 14.1411 16.1862 14.1149 16.1862 14.075C16.1993 13.6679 15.9466 13.4036 15.5701 13.4036ZM15.5701 13.6417C15.7527 13.6417 15.8782 13.7478 15.9059 13.9444H15.2066C15.2343 13.7739 15.3598 13.6417 15.5701 13.6417ZM22.8594 14.0642V12.9304H22.566V13.5895C22.4682 13.4712 22.3281 13.4051 22.1455 13.4051C21.7673 13.4051 21.4739 13.6817 21.4739 14.0642C21.4739 14.4468 21.7673 14.7233 22.1455 14.7233C22.3411 14.7233 22.4813 14.6573 22.566 14.539V14.6972H22.8594V14.0642ZM21.782 14.0642C21.782 13.8399 21.9352 13.6556 22.1879 13.6556C22.4259 13.6556 22.5938 13.8276 22.5938 14.0642C22.5938 14.2885 22.4259 14.4729 22.1879 14.4729C21.9352 14.4591 21.782 14.287 21.782 14.0642ZM11.9596 14.0642V13.4313H11.6662V13.5895C11.5684 13.4712 11.4283 13.4051 11.2457 13.4051C10.8675 13.4051 10.5741 13.6817 10.5741 14.0642C10.5741 14.4468 10.8675 14.7233 11.2457 14.7233C11.4413 14.7233 11.5815 14.6573 11.6662 14.539V14.6972H11.9596V14.0642ZM10.8692 14.0642C10.8692 13.8399 11.0224 13.6556 11.275 13.6556C11.513 13.6556 11.6809 13.8276 11.6809 14.0642C11.6809 14.2885 11.513 14.4729 11.275 14.4729C11.0224 14.4591 10.8692 14.287 10.8692 14.0642Z" fill="#0C0C0D"/>
<path d="M17.6972 3.81689H13.2897V11.2804H17.6972V3.81689Z" fill="#FF5A00"/>
<path d="M13.5831 7.54856C13.5831 6.03219 14.3394 4.68636 15.5 3.81679C14.6459 3.18382 13.5684 2.80127 12.3932 2.80127C9.60916 2.80127 7.35651 4.92449 7.35651 7.54856C7.35651 10.1726 9.60916 12.2958 12.3932 12.2958C13.5684 12.2958 14.6459 11.9133 15.5 11.2803C14.3378 10.423 13.5831 9.06492 13.5831 7.54856Z" fill="#EB001B"/>
<path d="M23.6435 7.54856C23.6435 10.1726 21.3908 12.2958 18.6068 12.2958C17.4315 12.2958 16.3541 11.9133 15.5 11.2803C16.6752 10.4092 17.4169 9.06492 17.4169 7.54856C17.4169 6.03219 16.6606 4.68636 15.5 3.81679C16.3525 3.18382 17.4299 2.80127 18.6051 2.80127C21.3908 2.80127 23.6435 4.93832 23.6435 7.54856Z" fill="#F79E1B"/>
</svg>
