<svg width="33" height="18" viewBox="0 0 33 18" fill="none" xmlns="http://www.w3.org/2000/svg">
<rect y="0.262207" width="33" height="17" rx="8.5" fill="#FAFAFA"/>
<g clip-path="url(#clip0_3_6016)">
<path d="M9.36031 5.62853C9.09652 5.91377 8.67446 6.13875 8.2524 6.10661C8.19965 5.72093 8.40628 5.31115 8.64808 5.05805C8.91187 4.76477 9.3735 4.55586 9.7472 4.53979C9.79116 4.94154 9.6197 5.33526 9.36031 5.62853ZM9.7428 6.18294C9.1317 6.1508 8.60852 6.50032 8.31835 6.50032C8.02379 6.50032 7.57974 6.19901 7.09613 6.20705C6.46744 6.21508 5.88271 6.5405 5.56177 7.05875C4.9023 8.09526 5.39031 9.62994 6.02779 10.4736C6.33994 10.8914 6.71364 11.3494 7.20605 11.3334C7.67207 11.3173 7.85672 11.0561 8.41947 11.0561C8.98661 11.0561 9.14928 11.3334 9.64168 11.3253C10.1517 11.3173 10.4726 10.9075 10.7848 10.4897C11.1409 10.0156 11.286 9.55361 11.2948 9.5295C11.286 9.52147 10.3099 9.17998 10.3012 8.15151C10.2924 7.29177 11.0705 6.88199 11.1057 6.85788C10.6661 6.26329 9.98021 6.19901 9.7428 6.18294ZM13.2732 5.01787V11.2811H14.3371V9.13981H15.8099C17.1552 9.13981 18.1005 8.29614 18.1005 7.07482C18.1005 5.85351 17.1728 5.01787 15.8451 5.01787H13.2732ZM14.3371 5.83744H15.5637C16.487 5.83744 17.0145 6.2874 17.0145 7.07884C17.0145 7.87029 16.487 8.32426 15.5593 8.32426H14.3371V5.83744ZM20.0437 11.3293C20.712 11.3293 21.3319 11.02 21.6132 10.5299H21.6352V11.2811H22.62V8.16356C22.62 7.25963 21.8287 6.67709 20.6109 6.67709C19.481 6.67709 18.6456 7.26766 18.6149 8.07919H19.5733C19.6524 7.69352 20.0437 7.44042 20.5801 7.44042C21.2308 7.44042 21.5957 7.71762 21.5957 8.22784V8.57334L20.2679 8.64566C19.0325 8.71396 18.3643 9.17597 18.3643 9.97946C18.3643 10.791 19.0545 11.3293 20.0437 11.3293ZM20.3295 10.5861C19.7623 10.5861 19.4018 10.337 19.4018 9.95536C19.4018 9.56164 19.7491 9.33265 20.413 9.29649L21.5957 9.22819V9.58173C21.5957 10.1683 21.0505 10.5861 20.3295 10.5861ZM23.9346 12.9845C24.9721 12.9845 25.4601 12.623 25.8866 11.5262L27.7551 6.73736H26.6736L25.4206 10.4375H25.3986L24.1456 6.73736H23.0333L24.8359 11.2972L24.7391 11.5744C24.5765 12.0444 24.3127 12.2252 23.8423 12.2252C23.7587 12.2252 23.5961 12.2172 23.5301 12.2092V12.9604C23.5917 12.9765 23.8554 12.9845 23.9346 12.9845Z" fill="black"/>
</g>
<defs>
<clipPath id="clip0_3_6016">
<rect width="22.5099" height="8.44474" fill="white" transform="translate(5.24506 4.53979)"/>
</clipPath>
</defs>
</svg>
