<svg width="33" height="18" viewBox="0 0 33 18" fill="none" xmlns="http://www.w3.org/2000/svg">
<rect y="0.262207" width="33" height="17" rx="8.5" fill="#FAFAFA"/>
<g clip-path="url(#clip0_3_6017)">
<path d="M15.8475 8.65982V11.2809H14.9561V4.80805H17.3202C17.6023 4.80255 17.8829 4.84924 18.1456 4.94542C18.4084 5.04159 18.6481 5.18536 18.851 5.36841C19.0559 5.54035 19.219 5.75122 19.3293 5.98684C19.4396 6.22246 19.4945 6.47738 19.4904 6.73445C19.4963 6.9929 19.4422 7.24948 19.3318 7.48661C19.2214 7.72373 19.0574 7.93578 18.851 8.10824C18.4376 8.47596 17.9273 8.65965 17.3202 8.6593H15.8475V8.65982ZM15.8475 5.60495V7.86447H17.3423C17.5062 7.869 17.6693 7.84158 17.8211 7.78395C17.973 7.72632 18.1103 7.63976 18.2243 7.5298C18.3376 7.42699 18.4277 7.30403 18.4893 7.16817C18.5508 7.03231 18.5825 6.88633 18.5825 6.73884C18.5825 6.59136 18.5508 6.44537 18.4893 6.30951C18.4277 6.17366 18.3376 6.05069 18.2243 5.94788C18.1117 5.83561 17.9749 5.74693 17.8229 5.68771C17.6708 5.6285 17.507 5.60012 17.3423 5.60444H15.8475V5.60495Z" fill="#5F6368"/>
<path d="M21.5445 6.70752C22.2033 6.70752 22.7233 6.87175 23.1046 7.20022C23.4859 7.52869 23.6763 7.97905 23.676 8.55129V11.2808H22.8234V10.6662H22.7846C22.4155 11.1723 21.9246 11.4254 21.3119 11.4254C20.7889 11.4254 20.3514 11.2808 19.9992 10.9916C19.8303 10.8588 19.6952 10.6926 19.6038 10.505C19.5124 10.3173 19.4671 10.113 19.4711 9.907C19.4711 9.44872 19.6567 9.08427 20.028 8.81365C20.3993 8.54302 20.895 8.40737 21.5151 8.40668C22.0444 8.40668 22.4803 8.49706 22.8228 8.67782V8.48776C22.8238 8.34729 22.7913 8.20837 22.7276 8.08108C22.6639 7.95379 22.5707 7.84131 22.4546 7.7518C22.2189 7.55342 21.9117 7.44517 21.5943 7.44864C21.0964 7.44864 20.7024 7.64455 20.4123 8.03637L19.6272 7.57517C20.059 6.99674 20.6981 6.70752 21.5445 6.70752ZM20.3912 9.92507C20.3906 10.0309 20.4171 10.1353 20.4686 10.2296C20.52 10.324 20.5948 10.4055 20.6869 10.4674C20.884 10.612 21.1287 10.6886 21.3795 10.6843C21.7556 10.6837 22.1162 10.544 22.3821 10.2959C22.6774 10.0366 22.825 9.73243 22.825 9.3833C22.5471 9.17672 22.1596 9.07343 21.6624 9.07343C21.3003 9.07343 20.9984 9.15486 20.7566 9.31771C20.5125 9.48298 20.3912 9.68389 20.3912 9.92507Z" fill="#5F6368"/>
<path d="M28.5702 6.85205L25.5938 13.2329H24.6737L25.7782 11.0003L23.821 6.85205H24.7899L26.2045 10.0335H26.2238L27.5996 6.85205H28.5702Z" fill="#5F6368"/>
<path d="M12.2454 8.09472C12.2458 7.84132 12.2228 7.58836 12.1768 7.33862H8.41754V8.77077H10.5707C10.5266 8.9995 10.4333 9.21755 10.2965 9.41176C10.1597 9.60597 9.98212 9.77232 9.77452 9.90079V10.8304H11.0595C11.8119 10.1833 12.2454 9.22629 12.2454 8.09472Z" fill="#4285F4"/>
<path d="M8.41765 11.7285C9.49338 11.7285 10.3991 11.399 11.0596 10.8309L9.77463 9.90128C9.41697 10.1275 8.95635 10.2566 8.41765 10.2566C7.37791 10.2566 6.49541 9.60276 6.17983 8.72168H4.85608V9.67972C5.18786 10.2956 5.6966 10.8133 6.32552 11.1751C6.95444 11.5369 7.67877 11.7285 8.41765 11.7285Z" fill="#34A853"/>
<path d="M6.1798 8.72173C6.01296 8.26004 6.01296 7.76006 6.1798 7.29837V6.34033H4.85604C4.57694 6.85842 4.43158 7.43022 4.43158 8.01005C4.43158 8.58988 4.57694 9.16168 4.85604 9.67977L6.1798 8.72173Z" fill="#FBBC04"/>
<path d="M8.41765 5.76342C8.98612 5.75475 9.53542 5.95512 9.94681 6.3212L11.0845 5.25987C10.3631 4.62776 9.40735 4.28072 8.41765 4.2915C7.67877 4.29154 6.95444 4.48314 6.32552 4.84492C5.6966 5.20671 5.18786 5.72444 4.85608 6.3403L6.17984 7.29834C6.49541 6.41726 7.37792 5.76342 8.41765 5.76342Z" fill="#EA4335"/>
</g>
<defs>
<clipPath id="clip0_3_6017">
<rect width="24.1371" height="8.94149" fill="white" transform="translate(4.4314 4.2915)"/>
</clipPath>
</defs>
</svg>
