<svg width="32" height="18" viewBox="0 0 32 18" fill="none" xmlns="http://www.w3.org/2000/svg">
<rect y="0.262207" width="32" height="17" rx="8.5" fill="#1434CB"/>
<path d="M14.5606 12.236H12.7426L13.8797 5.18262H15.6977L14.5606 12.236Z" fill="white"/>
<path d="M21.1513 5.35498C20.7927 5.21226 20.2239 5.05469 19.5206 5.05469C17.7252 5.05469 16.4609 6.01509 16.4532 7.38819C16.4382 8.40125 17.3584 8.96393 18.0465 9.30172C18.7499 9.64689 18.989 9.87218 18.989 10.1799C18.9819 10.6524 18.4207 10.8702 17.8972 10.8702C17.1714 10.8702 16.7824 10.7579 16.1914 10.495L15.952 10.3823L15.6976 11.9656C16.124 12.1605 16.9096 12.3334 17.7252 12.341C19.6329 12.341 20.8748 11.3955 20.8895 9.93222C20.8968 9.12929 20.4109 8.51405 19.3635 8.01131C18.7276 7.68858 18.3381 7.47096 18.3381 7.14076C18.3456 6.84057 18.6675 6.5331 19.3853 6.5331C19.9764 6.51804 20.4106 6.66055 20.7396 6.80317L20.9041 6.87806L21.1513 5.35498Z" fill="white"/>
<path d="M23.5677 9.73722C23.7174 9.33202 24.2935 7.76375 24.2935 7.76375C24.286 7.77881 24.443 7.35106 24.5327 7.08847L24.6598 7.69623C24.6598 7.69623 25.0041 9.38458 25.0789 9.73722C24.7947 9.73722 23.9268 9.73722 23.5677 9.73722ZM25.8119 5.18262H24.4056C23.9719 5.18262 23.6424 5.31007 23.4553 5.76784L20.7548 12.2359H22.6625C22.6625 12.2359 22.9765 11.3653 23.044 11.1778C23.2533 11.1778 25.1091 11.1778 25.3783 11.1778C25.4305 11.4255 25.5952 12.2359 25.5952 12.2359H27.2786L25.8119 5.18262Z" fill="white"/>
<path d="M11.2238 5.18262L9.44335 9.99233L9.24878 9.01687C8.9196 7.8913 7.88724 6.66841 6.73517 6.06035L8.36604 12.2285H10.2886L13.1463 5.18262H11.2238Z" fill="white"/>
<path d="M7.79017 5.18262H4.86507L4.83514 5.32513C7.11691 5.91045 8.62808 7.32134 9.24895 9.01717L8.61307 5.77552C8.50838 5.32503 8.18666 5.19748 7.79017 5.18262Z" fill="white"/>
</svg>
