<svg width="33" height="18" viewBox="0 0 33 18" fill="none" xmlns="http://www.w3.org/2000/svg">
<rect y="0.262207" width="33" height="17" rx="8.5" fill="#FAFAFA"/>
<mask id="mask0_3_6015" style="mask-type:alpha" maskUnits="userSpaceOnUse" x="11" y="2" width="9" height="14">
<path d="M11.1044 2.37085H19.7455V15.1535H11.1044V2.37085Z" fill="white"/>
</mask>
<g mask="url(#mask0_3_6015)">
<path fill-rule="evenodd" clip-rule="evenodd" d="M18.9549 2.37085C18.818 2.37085 18.6893 2.40319 18.5776 2.45989H18.5774C18.5774 2.45989 11.5052 6.19655 11.5007 6.19885C11.2728 6.316 11.1043 6.5319 11.1043 6.78876V13.8183C11.1043 14.1183 11.3539 14.3637 11.6562 14.4473L14.4217 15.1279C14.4874 15.1443 14.5564 15.1535 14.6278 15.1535C15.0328 15.1535 15.4056 14.8684 15.4054 14.5091V13.5242L13.9087 13.3541C13.5475 13.307 13.277 13.004 13.2748 12.6569V7.611C13.2865 7.32895 13.4775 7.0896 13.7459 6.98344L19.7454 4.7504V3.028C19.7135 2.66036 19.3645 2.37085 18.9549 2.37085Z" fill="#1DDBA9"/>
</g>
<path fill-rule="evenodd" clip-rule="evenodd" d="M16.0104 8.19522C15.6667 8.28077 15.4056 8.55236 15.4056 8.89094V13.5242L16.8002 13.6827C17.236 13.7362 17.5801 13.3629 17.5801 12.9684L17.5859 10.4072C17.585 10.0613 17.9049 9.78762 18.2793 9.73767L21.2344 9.39665C21.2349 9.39657 21.2353 9.39626 21.2357 9.39626C21.5912 9.35094 21.8956 9.09935 21.8956 8.7707V4.91258C21.8956 4.55526 21.519 4.29321 21.1234 4.29321C21.0279 4.29321 20.9369 4.30977 20.8523 4.33845L19.7456 4.75042V6.74289C19.7456 7.06247 19.5058 7.33271 19.1894 7.42393L16.0104 8.19522Z" fill="#0D1640"/>
</svg>
