<svg width="32" height="18" viewBox="0 0 32 18" fill="none" xmlns="http://www.w3.org/2000/svg">
<rect y="0.262207" width="32" height="17" rx="8.5" fill="#FAFAFA"/>
<path d="M15.9523 12.9696H7.71761C7.54446 12.9696 7.5442 12.9696 7.5442 12.8034C7.5442 12.5264 7.54806 12.2497 7.54214 11.973C7.54008 11.8774 7.57589 11.8533 7.67097 11.8543C8.16055 11.8579 8.6478 11.856 9.13609 11.856H24.19C24.3905 11.856 24.3724 11.8414 24.3729 12.0314C24.3729 12.3021 24.3729 12.5727 24.3729 12.8433C24.3729 12.9691 24.3729 12.9696 24.2258 12.9696H15.9523Z" fill="#E8494E"/>
<path d="M19.9704 9.47715H18.9513C18.9492 9.43895 18.9459 9.40415 18.9459 9.36837C18.9459 8.71642 18.9459 8.06472 18.9446 7.41277C18.946 7.3115 18.9383 7.21029 18.9214 7.11028C18.8454 6.70314 18.5725 6.61967 18.2427 6.64547C17.8363 6.6771 17.6353 6.94699 17.6103 7.29133C17.5846 7.64031 17.5962 7.99171 17.5939 8.3419C17.5921 8.68016 17.5939 9.01843 17.5939 9.35669V9.4735H16.5761V9.3691C16.5761 8.70499 16.5797 8.04063 16.5732 7.37651C16.5737 7.24181 16.5521 7.10785 16.5093 6.97935C16.4114 6.69925 16.1916 6.63525 15.9388 6.64522C15.8255 6.64874 15.7137 6.67166 15.609 6.71288C15.3823 6.80584 15.2844 6.99566 15.2447 7.21419C15.2292 7.3052 15.2219 7.39726 15.2228 7.48943C15.221 8.11363 15.2228 8.73784 15.2228 9.36205V9.47569H14.214V5.90664H15.1455V6.30647C15.408 5.9227 15.803 5.8166 16.2442 5.8149C16.6905 5.81319 17.0741 5.94825 17.3223 6.29528C17.5062 6.17969 17.6688 6.04511 17.8575 5.96505C18.3612 5.75162 18.8758 5.73605 19.3651 6.00447C19.6985 6.18723 19.8585 6.49483 19.9263 6.84186C19.9562 7.01144 19.9704 7.18318 19.9685 7.35509C19.9732 8.02237 19.9704 8.68966 19.9704 9.35694V9.47715Z" fill="#004261"/>
<path d="M24.132 9.4808C23.8382 9.4808 23.5584 9.48202 23.2791 9.47788C23.2605 9.47788 23.2276 9.43675 23.2276 9.41339C23.2216 9.31605 23.225 9.2187 23.225 9.09922C23.158 9.16614 23.1096 9.22089 23.0539 9.26957C22.8581 9.43675 22.6182 9.50611 22.3628 9.54091C22.0279 9.58715 21.6944 9.57765 21.3726 9.4662C21.084 9.36618 20.8869 9.17198 20.78 8.90332C20.6507 8.58769 20.6528 8.23753 20.7859 7.92332C20.8928 7.66269 21.1149 7.51278 21.3837 7.41592C21.7052 7.29984 22.0423 7.27964 22.3809 7.27259C22.6277 7.26748 22.8751 7.27259 23.1206 7.27259C23.1936 6.97715 23.0547 6.70265 22.7578 6.64522C22.5159 6.59849 22.2734 6.58559 22.0415 6.68975C21.9096 6.74889 21.8354 6.85329 21.7929 6.98178C21.7841 7.00806 21.7465 7.04359 21.7215 7.04383C21.4187 7.04773 21.116 7.04578 20.8135 7.04505C20.8003 7.0426 20.7876 7.03859 20.7756 7.03313C20.797 6.82288 20.871 6.62045 20.9915 6.4425C21.2675 6.03366 21.6872 5.86745 22.1752 5.82924C22.5532 5.79955 22.9289 5.80929 23.2922 5.9334C23.77 6.09669 24.0346 6.42206 24.1119 6.88882C24.1274 6.99524 24.1341 7.10264 24.132 7.21005C24.1337 7.92648 24.1337 8.64284 24.132 9.35912V9.4808ZM23.1289 8.00363C22.8833 8.00363 22.6367 7.99511 22.3914 8.00679C22.2271 8.01731 22.064 8.04116 21.9039 8.0781C21.838 8.09436 21.7799 8.13125 21.739 8.18274C21.5762 8.40176 21.6826 8.71204 21.9557 8.77361C22.1247 8.81181 22.3092 8.80889 22.4847 8.79794C22.9717 8.76898 23.1528 8.44021 23.1289 8.00363Z" fill="#004261"/>
<path d="M10.2387 7.27075C10.2247 7.1464 10.2255 7.03178 10.1967 6.92421C10.1804 6.86565 10.1486 6.81195 10.1044 6.76815C10.0601 6.72435 10.0048 6.69189 9.94362 6.6738C9.69085 6.58984 9.4324 6.5806 9.17937 6.66796C9.00467 6.72856 8.90469 6.85802 8.87197 7.03835H7.87066C7.93998 6.42996 8.35431 5.99192 8.99101 5.87024C9.44245 5.78312 9.89286 5.78823 10.3391 5.91745C10.8367 6.062 11.2008 6.46549 11.2129 6.95999C11.2327 7.7874 11.2212 8.61359 11.2224 9.44027C11.2209 9.45188 11.2181 9.46331 11.2139 9.47434H10.3255V9.0874C10.274 9.14289 10.2402 9.18085 10.2044 9.21662C10.0191 9.4006 9.78387 9.48918 9.52542 9.53104C9.22111 9.57971 8.91706 9.58312 8.61559 9.51157C8.15616 9.40255 7.88741 9.1166 7.81062 8.68416C7.7805 8.49623 7.7825 8.30496 7.81655 8.11763C7.87813 7.75795 8.12576 7.53552 8.48083 7.4119C8.79725 7.30166 9.12732 7.27878 9.45997 7.27148C9.7094 7.26637 9.96011 7.27075 10.2387 7.27075ZM10.2155 8.01031C10.2073 8.00659 10.1986 8.00404 10.1897 8.00277C9.95779 8.00277 9.72589 7.99473 9.49682 8.00642C9.32858 8.01584 9.1616 8.03979 8.99797 8.07796C8.9248 8.10003 8.86197 8.14534 8.82018 8.20621C8.78658 8.25545 8.76543 8.31134 8.75836 8.36954C8.7513 8.42774 8.75851 8.48669 8.77943 8.54184C8.80036 8.59699 8.83444 8.64685 8.87904 8.68756C8.92363 8.72828 8.97755 8.75876 9.03662 8.77664C9.22086 8.83577 9.40844 8.81509 9.5968 8.79951C10.1062 8.75717 10.2631 8.35222 10.2155 8.01031Z" fill="#004261"/>
<path d="M13.5338 8.66651V9.47494C13.3047 9.50799 13.0714 9.50544 12.8432 9.4674C12.375 9.38587 12.1825 9.12013 12.14 8.6945C12.1274 8.56941 12.1235 8.44311 12.1233 8.3173C12.1222 7.03562 12.1222 5.75395 12.1233 4.47228V4.35474H13.1333C13.1354 4.39465 13.1393 4.43626 13.1393 4.47641C13.1393 5.743 13.1393 7.00958 13.1393 8.27617V8.32241C13.1393 8.61443 13.189 8.66116 13.5028 8.65921C13.5133 8.66092 13.5237 8.66336 13.5338 8.66651Z" fill="#004261"/>
</svg>
