<svg width="32" height="32" viewBox="0 0 32 32" fill="none" xmlns="http://www.w3.org/2000/svg">
<path d="M18.9468 5.395C18.0535 4.30748 16.7558 4.12788 16.2907 4.63191C15.8257 5.13594 16.2028 6.74347 14.7293 7.15582C13.2557 7.56816 14.2144 8.28002 12.9017 8.3261C11.5889 8.37217 10.9175 7.22682 10.0336 7.6086C9.14961 7.99039 10.232 8.28048 9.9113 9.51658C9.59064 10.7527 8.21865 9.39436 7.14898 9.45548C6.46752 9.47521 5.79305 9.59872 5.14882 9.82175C4.54887 10.0014 4.02038 10.9361 5.14882 11.867C6.27726 12.798 6.55326 12.2488 7.34693 12.844C8.14059 13.4393 10.0641 15.4846 10.1864 16.8434C10.3086 18.2022 9.57277 18.9094 9.7284 20.0185C9.88403 21.1277 8.81249 23.5918 8.81249 23.5918C8.81249 23.5918 8.07994 24.6911 10.2169 25.9427L11.7093 26.7364C11.7093 26.7364 12.1094 26.9042 12.8424 26.2784C13.5754 25.6526 13.575 25.9427 14.4909 27.2249C14.4909 27.2249 15.0081 27.9574 16.445 27.988C16.445 27.988 17.6966 28.1803 17.7577 26.9804C17.7685 26.7712 17.2998 26.0034 18.9802 25.2708C19.303 25.0995 19.6609 25.0049 20.0263 24.9943C20.3916 24.9837 20.7544 25.0574 21.0866 25.2097C21.866 25.6678 22.777 25.85 23.6726 25.7269C24.1837 25.7275 24.6824 25.5695 25.0999 25.2748C25.5174 24.9801 25.8332 24.5631 26.0038 24.0813C26.0038 24.0813 26.4923 23.4099 25.3624 22.6162C24.6665 21.9997 24.6459 20.5136 25.1791 20.2653C25.7123 20.0171 25.8519 20.0693 25.3672 18.8186C24.8824 17.5679 25.1198 17.6704 24.1447 17.3441C23.1695 17.0178 24.1127 14.8334 25.0775 14.3049C26.0423 13.7764 26.8064 14.3392 26.7603 12.4157C26.7029 11.8322 26.8002 11.2439 27.0424 10.7099C27.443 9.86358 25.9662 9.62239 25.1476 9.55374C24.329 9.4851 23.8254 8.27157 22.2456 8.07692C20.6658 7.88226 19.8402 6.48064 18.9468 5.395Z" stroke="#0C0C0D" stroke-width="1.5" stroke-linecap="round" stroke-linejoin="round"/>
</svg>
