<svg width="20" height="24" viewBox="0 0 20 24" fill="none" xmlns="http://www.w3.org/2000/svg">
<path d="M18.9663 20.0818C19.2827 20.4333 19.4233 20.8552 19.3882 21.3474C19.3882 21.8396 19.2124 22.2966 18.8608 22.7185C18.5444 23.1404 18.0522 23.3513 17.3843 23.3513C16.7515 23.3513 16.2593 23.1052 15.9077 22.613L9.73779 15.2302L3.98975 22.5076C3.56787 23.0701 3.04053 23.3513 2.40771 23.3513C1.7749 23.3513 1.28271 23.1755 0.931152 22.824C0.57959 22.4724 0.403809 22.033 0.403809 21.5056C0.403809 20.9783 0.544434 20.5212 0.825684 20.1345L7.57568 12.2771L0.825684 4.05054C0.509277 3.66382 0.351074 3.22437 0.351074 2.73218C0.38623 2.20483 0.57959 1.76538 0.931152 1.41382C1.31787 1.06226 1.81006 0.886475 2.40771 0.886475C3.04053 0.886475 3.53271 1.13257 3.88428 1.62476L9.94873 9.11304L15.9604 1.62476C16.312 1.13257 16.7866 0.886475 17.3843 0.886475C18.0171 0.886475 18.5093 1.06226 18.8608 1.41382C19.2476 1.76538 19.4409 2.18726 19.4409 2.67944C19.4409 3.17163 19.3003 3.59351 19.019 3.94507L12.2163 12.0134L18.9663 20.0818Z" fill="#0C0C0D"/>
</svg>
